<mxfile host="app.diagrams.net" agent="Mozilla/5.0 (Windows NT 10.0; Win64; x64) AppleWebKit/537.36 (KHTML, like Gecko) Chrome/130.0.0.0 Safari/537.36 Edg/130.0.0.0" version="24.8.4">
  <diagram name="Página-1" id="TPrUVSqMnmlvhHlHuIkN">
    <mxGraphModel dx="2797" dy="1121" grid="1" gridSize="10" guides="1" tooltips="1" connect="1" arrows="1" fold="1" page="1" pageScale="1" pageWidth="827" pageHeight="1169" math="0" shadow="0">
      <root>
        <mxCell id="0" />
        <mxCell id="1" parent="0" />
        <mxCell id="v1dfMaa-vSMGMVg-pt_F-7" value="" style="rounded=0;whiteSpace=wrap;html=1;" vertex="1" parent="1">
          <mxGeometry x="-400" y="460" width="1440" height="700" as="geometry" />
        </mxCell>
        <mxCell id="v1dfMaa-vSMGMVg-pt_F-3" value="" style="rounded=0;whiteSpace=wrap;html=1;" vertex="1" parent="1">
          <mxGeometry x="-180" y="486.75" width="440" height="113.25" as="geometry" />
        </mxCell>
        <mxCell id="iclG0WWFXR2_eoOYb4x0-86" value="" style="whiteSpace=wrap;html=1;aspect=fixed;" parent="1" vertex="1">
          <mxGeometry x="420" y="924.3" width="223.4" height="223.4" as="geometry" />
        </mxCell>
        <mxCell id="iclG0WWFXR2_eoOYb4x0-68" value="" style="rounded=0;whiteSpace=wrap;html=1;" parent="1" vertex="1">
          <mxGeometry x="-47.94999999999999" y="945" width="218" height="120" as="geometry" />
        </mxCell>
        <mxCell id="iclG0WWFXR2_eoOYb4x0-106" style="edgeStyle=orthogonalEdgeStyle;rounded=0;orthogonalLoop=1;jettySize=auto;html=1;entryX=0.5;entryY=0;entryDx=0;entryDy=0;" parent="1" source="iclG0WWFXR2_eoOYb4x0-63" target="iclG0WWFXR2_eoOYb4x0-86" edge="1">
          <mxGeometry relative="1" as="geometry">
            <Array as="points">
              <mxPoint x="522" y="760" />
              <mxPoint x="522" y="924" />
            </Array>
          </mxGeometry>
        </mxCell>
        <mxCell id="iclG0WWFXR2_eoOYb4x0-63" value="" style="rounded=0;whiteSpace=wrap;html=1;" parent="1" vertex="1">
          <mxGeometry x="-167.95" y="687.3" width="490" height="100" as="geometry" />
        </mxCell>
        <mxCell id="iclG0WWFXR2_eoOYb4x0-1" value="" style="swimlane;startSize=0;" parent="1" vertex="1">
          <mxGeometry x="1580" y="709.3" width="240" height="200.7" as="geometry" />
        </mxCell>
        <mxCell id="iclG0WWFXR2_eoOYb4x0-3" value="" style="image;aspect=fixed;perimeter=ellipsePerimeter;html=1;align=center;shadow=0;dashed=0;spacingTop=3;image=img/lib/active_directory/windows_server_2.svg;" parent="iclG0WWFXR2_eoOYb4x0-1" vertex="1">
          <mxGeometry x="13.41" y="90" width="40" height="50" as="geometry" />
        </mxCell>
        <mxCell id="iclG0WWFXR2_eoOYb4x0-4" value="" style="image;aspect=fixed;perimeter=ellipsePerimeter;html=1;align=center;shadow=0;dashed=0;spacingTop=3;image=img/lib/active_directory/windows_server_2.svg;" parent="iclG0WWFXR2_eoOYb4x0-1" vertex="1">
          <mxGeometry x="75" y="90" width="40" height="50" as="geometry" />
        </mxCell>
        <mxCell id="iclG0WWFXR2_eoOYb4x0-6" value="Administrativo" style="text;html=1;align=center;verticalAlign=middle;resizable=0;points=[];autosize=1;strokeColor=none;fillColor=none;fontSize=15;fontStyle=1" parent="iclG0WWFXR2_eoOYb4x0-1" vertex="1">
          <mxGeometry x="30" width="120" height="30" as="geometry" />
        </mxCell>
        <mxCell id="iclG0WWFXR2_eoOYb4x0-27" value="" style="verticalLabelPosition=bottom;html=1;verticalAlign=top;align=center;strokeColor=none;fillColor=#00BEF2;shape=mxgraph.azure.computer;pointerEvents=1;" parent="iclG0WWFXR2_eoOYb4x0-1" vertex="1">
          <mxGeometry x="140" y="100" width="30" height="30" as="geometry" />
        </mxCell>
        <mxCell id="iclG0WWFXR2_eoOYb4x0-28" value="" style="verticalLabelPosition=bottom;html=1;verticalAlign=top;align=center;strokeColor=none;fillColor=#00BEF2;shape=mxgraph.azure.laptop;pointerEvents=1;" parent="iclG0WWFXR2_eoOYb4x0-1" vertex="1">
          <mxGeometry x="180" y="100" width="40" height="30" as="geometry" />
        </mxCell>
        <mxCell id="iclG0WWFXR2_eoOYb4x0-37" value="" style="html=1;verticalLabelPosition=bottom;align=center;labelBackgroundColor=#ffffff;verticalAlign=top;strokeWidth=2;strokeColor=#0080F0;shadow=0;dashed=0;shape=mxgraph.ios7.icons.wifi;pointerEvents=1" parent="iclG0WWFXR2_eoOYb4x0-1" vertex="1">
          <mxGeometry x="180" y="10" width="40" height="30" as="geometry" />
        </mxCell>
        <mxCell id="iclG0WWFXR2_eoOYb4x0-55" style="edgeStyle=orthogonalEdgeStyle;rounded=0;orthogonalLoop=1;jettySize=auto;html=1;entryX=0.524;entryY=0.847;entryDx=0;entryDy=0;entryPerimeter=0;" parent="iclG0WWFXR2_eoOYb4x0-1" source="iclG0WWFXR2_eoOYb4x0-28" target="iclG0WWFXR2_eoOYb4x0-37" edge="1">
          <mxGeometry relative="1" as="geometry" />
        </mxCell>
        <mxCell id="iclG0WWFXR2_eoOYb4x0-56" style="edgeStyle=orthogonalEdgeStyle;rounded=0;orthogonalLoop=1;jettySize=auto;html=1;entryX=0.053;entryY=0.416;entryDx=0;entryDy=0;entryPerimeter=0;" parent="iclG0WWFXR2_eoOYb4x0-1" source="iclG0WWFXR2_eoOYb4x0-27" target="iclG0WWFXR2_eoOYb4x0-37" edge="1">
          <mxGeometry relative="1" as="geometry">
            <Array as="points">
              <mxPoint x="155" y="70" />
              <mxPoint x="155" y="70" />
              <mxPoint x="155" y="22" />
            </Array>
          </mxGeometry>
        </mxCell>
        <mxCell id="iclG0WWFXR2_eoOYb4x0-34" value="" style="image;aspect=fixed;html=1;points=[];align=center;fontSize=12;image=img/lib/azure2/identity/Entra_Connect.svg;" parent="iclG0WWFXR2_eoOYb4x0-1" vertex="1">
          <mxGeometry x="11.079999999999927" y="20.69999999999999" width="42.33" height="40" as="geometry" />
        </mxCell>
        <mxCell id="iclG0WWFXR2_eoOYb4x0-43" style="edgeStyle=orthogonalEdgeStyle;rounded=0;orthogonalLoop=1;jettySize=auto;html=1;" parent="iclG0WWFXR2_eoOYb4x0-1" source="iclG0WWFXR2_eoOYb4x0-34" target="iclG0WWFXR2_eoOYb4x0-3" edge="1">
          <mxGeometry relative="1" as="geometry" />
        </mxCell>
        <mxCell id="iclG0WWFXR2_eoOYb4x0-45" value="" style="edgeStyle=orthogonalEdgeStyle;rounded=0;orthogonalLoop=1;jettySize=auto;html=1;" parent="iclG0WWFXR2_eoOYb4x0-1" source="iclG0WWFXR2_eoOYb4x0-34" target="iclG0WWFXR2_eoOYb4x0-3" edge="1">
          <mxGeometry relative="1" as="geometry" />
        </mxCell>
        <mxCell id="iclG0WWFXR2_eoOYb4x0-9" value="" style="verticalLabelPosition=bottom;html=1;verticalAlign=top;align=center;strokeColor=none;fillColor=#00BEF2;shape=mxgraph.azure.cloud;" parent="1" vertex="1">
          <mxGeometry x="-390" y="460" width="130" height="72.5" as="geometry" />
        </mxCell>
        <mxCell id="iclG0WWFXR2_eoOYb4x0-10" value="AZURE" style="text;html=1;align=center;verticalAlign=middle;resizable=0;points=[];autosize=1;strokeColor=none;fillColor=none;fontStyle=1;fontSize=20;" parent="1" vertex="1">
          <mxGeometry x="-370" y="496.75" width="90" height="40" as="geometry" />
        </mxCell>
        <mxCell id="iclG0WWFXR2_eoOYb4x0-11" value="" style="swimlane;startSize=0;fillColor=#FFFFFF;" parent="1" vertex="1">
          <mxGeometry x="1100" y="741.1999999999999" width="225" height="140" as="geometry" />
        </mxCell>
        <mxCell id="iclG0WWFXR2_eoOYb4x0-14" value="Armazém" style="text;html=1;align=center;verticalAlign=middle;resizable=0;points=[];autosize=1;strokeColor=none;fillColor=none;fontSize=15;fontStyle=1" parent="iclG0WWFXR2_eoOYb4x0-11" vertex="1">
          <mxGeometry x="67.5" width="90" height="30" as="geometry" />
        </mxCell>
        <mxCell id="iclG0WWFXR2_eoOYb4x0-31" value="" style="verticalLabelPosition=bottom;html=1;verticalAlign=top;align=center;strokeColor=none;fillColor=#00BEF2;shape=mxgraph.azure.computer;pointerEvents=1;" parent="iclG0WWFXR2_eoOYb4x0-11" vertex="1">
          <mxGeometry x="17.5" y="85" width="50" height="45" as="geometry" />
        </mxCell>
        <mxCell id="iclG0WWFXR2_eoOYb4x0-32" value="" style="verticalLabelPosition=bottom;html=1;verticalAlign=top;align=center;strokeColor=none;fillColor=#00BEF2;shape=mxgraph.azure.laptop;pointerEvents=1;" parent="iclG0WWFXR2_eoOYb4x0-11" vertex="1">
          <mxGeometry x="157.5" y="87.5" width="52.5" height="40" as="geometry" />
        </mxCell>
        <mxCell id="iclG0WWFXR2_eoOYb4x0-40" value="" style="html=1;verticalLabelPosition=bottom;align=center;labelBackgroundColor=#ffffff;verticalAlign=top;strokeWidth=2;strokeColor=#0080F0;shadow=0;dashed=0;shape=mxgraph.ios7.icons.wifi;pointerEvents=1" parent="iclG0WWFXR2_eoOYb4x0-11" vertex="1">
          <mxGeometry x="92.5" y="30" width="40" height="30" as="geometry" />
        </mxCell>
        <mxCell id="iclG0WWFXR2_eoOYb4x0-53" style="edgeStyle=orthogonalEdgeStyle;rounded=0;orthogonalLoop=1;jettySize=auto;html=1;entryX=0.035;entryY=0.337;entryDx=0;entryDy=0;entryPerimeter=0;" parent="iclG0WWFXR2_eoOYb4x0-11" source="iclG0WWFXR2_eoOYb4x0-31" target="iclG0WWFXR2_eoOYb4x0-40" edge="1">
          <mxGeometry relative="1" as="geometry" />
        </mxCell>
        <mxCell id="iclG0WWFXR2_eoOYb4x0-54" style="edgeStyle=orthogonalEdgeStyle;rounded=0;orthogonalLoop=1;jettySize=auto;html=1;entryX=0.535;entryY=0.925;entryDx=0;entryDy=0;entryPerimeter=0;" parent="iclG0WWFXR2_eoOYb4x0-11" source="iclG0WWFXR2_eoOYb4x0-32" target="iclG0WWFXR2_eoOYb4x0-40" edge="1">
          <mxGeometry relative="1" as="geometry" />
        </mxCell>
        <mxCell id="iclG0WWFXR2_eoOYb4x0-17" value="" style="verticalLabelPosition=bottom;html=1;verticalAlign=top;align=center;strokeColor=none;fillColor=#00BEF2;shape=mxgraph.azure.azure_active_directory;" parent="1" vertex="1">
          <mxGeometry x="846.76" y="460" width="70" height="70" as="geometry" />
        </mxCell>
        <mxCell id="iclG0WWFXR2_eoOYb4x0-103" style="edgeStyle=orthogonalEdgeStyle;rounded=0;orthogonalLoop=1;jettySize=auto;html=1;entryX=1;entryY=0.5;entryDx=0;entryDy=0;" parent="1" source="iclG0WWFXR2_eoOYb4x0-20" target="iclG0WWFXR2_eoOYb4x0-35" edge="1">
          <mxGeometry relative="1" as="geometry">
            <Array as="points">
              <mxPoint x="1685" y="325" />
            </Array>
          </mxGeometry>
        </mxCell>
        <mxCell id="iclG0WWFXR2_eoOYb4x0-20" value="" style="verticalLabelPosition=bottom;html=1;verticalAlign=top;align=center;strokeColor=none;fillColor=#00BEF2;shape=mxgraph.azure.enterprise;pointerEvents=1;" parent="1" vertex="1">
          <mxGeometry x="1670" y="669.3" width="30" height="40" as="geometry" />
        </mxCell>
        <mxCell id="iclG0WWFXR2_eoOYb4x0-104" style="edgeStyle=orthogonalEdgeStyle;rounded=0;orthogonalLoop=1;jettySize=auto;html=1;entryX=1;entryY=0.5;entryDx=0;entryDy=0;" parent="1" source="iclG0WWFXR2_eoOYb4x0-21" target="iclG0WWFXR2_eoOYb4x0-35" edge="1">
          <mxGeometry relative="1" as="geometry">
            <Array as="points">
              <mxPoint x="1216" y="325" />
            </Array>
          </mxGeometry>
        </mxCell>
        <mxCell id="iclG0WWFXR2_eoOYb4x0-21" value="" style="verticalLabelPosition=bottom;html=1;verticalAlign=top;align=center;strokeColor=none;fillColor=#00BEF2;shape=mxgraph.azure.enterprise;pointerEvents=1;" parent="1" vertex="1">
          <mxGeometry x="1201" y="701.1999999999999" width="30" height="40" as="geometry" />
        </mxCell>
        <mxCell id="iclG0WWFXR2_eoOYb4x0-22" value="" style="verticalLabelPosition=bottom;html=1;verticalAlign=top;align=center;strokeColor=none;fillColor=#00BEF2;shape=mxgraph.azure.access_control;" parent="1" vertex="1">
          <mxGeometry x="449" y="637.3" width="50" height="50" as="geometry" />
        </mxCell>
        <mxCell id="iclG0WWFXR2_eoOYb4x0-26" value="" style="verticalLabelPosition=bottom;html=1;verticalAlign=top;align=center;strokeColor=none;fillColor=#00BEF2;shape=mxgraph.azure.sql_database_sql_azure;" parent="1" vertex="1">
          <mxGeometry x="-18.44999999999999" y="965" width="47.5" height="50" as="geometry" />
        </mxCell>
        <mxCell id="iclG0WWFXR2_eoOYb4x0-47" style="edgeStyle=orthogonalEdgeStyle;rounded=0;orthogonalLoop=1;jettySize=auto;html=1;" parent="1" source="iclG0WWFXR2_eoOYb4x0-35" target="iclG0WWFXR2_eoOYb4x0-46" edge="1">
          <mxGeometry relative="1" as="geometry" />
        </mxCell>
        <mxCell id="iclG0WWFXR2_eoOYb4x0-35" value="" style="image;aspect=fixed;perimeter=ellipsePerimeter;html=1;align=center;shadow=0;dashed=0;spacingTop=3;image=img/lib/active_directory/internet_globe.svg;" parent="1" vertex="1">
          <mxGeometry x="49" y="299.3" width="50" height="50" as="geometry" />
        </mxCell>
        <mxCell id="iclG0WWFXR2_eoOYb4x0-36" value="INTERNET&lt;div style=&quot;font-size: 16px;&quot;&gt;&lt;br style=&quot;font-size: 16px;&quot;&gt;&lt;/div&gt;" style="text;html=1;align=center;verticalAlign=middle;resizable=0;points=[];autosize=1;strokeColor=none;fillColor=none;fontSize=16;fontStyle=1" parent="1" vertex="1">
          <mxGeometry x="27.05000000000001" y="270" width="100" height="50" as="geometry" />
        </mxCell>
        <mxCell id="iclG0WWFXR2_eoOYb4x0-29" value="230 estações" style="text;html=1;align=center;verticalAlign=middle;resizable=0;points=[];autosize=1;strokeColor=none;fillColor=none;fontSize=14;fontStyle=1" parent="1" vertex="1">
          <mxGeometry x="1710" y="849.3" width="110" height="30" as="geometry" />
        </mxCell>
        <mxCell id="iclG0WWFXR2_eoOYb4x0-33" value="270 estações" style="text;html=1;align=center;verticalAlign=middle;resizable=0;points=[];autosize=1;strokeColor=none;fillColor=none;fontSize=14;" parent="1" vertex="1">
          <mxGeometry x="1110" y="881.1999999999999" width="110" height="30" as="geometry" />
        </mxCell>
        <mxCell id="iclG0WWFXR2_eoOYb4x0-7" value="AD" style="text;html=1;align=center;verticalAlign=middle;resizable=0;points=[];autosize=1;strokeColor=none;fillColor=none;fontSize=14;" parent="1" vertex="1">
          <mxGeometry x="1590" y="849.3" width="40" height="30" as="geometry" />
        </mxCell>
        <mxCell id="iclG0WWFXR2_eoOYb4x0-8" value="FileServer /&amp;nbsp;&lt;div style=&quot;font-size: 13px;&quot;&gt;PrintServer&lt;/div&gt;" style="text;html=1;align=center;verticalAlign=middle;resizable=0;points=[];autosize=1;strokeColor=none;fillColor=none;fontSize=13;" parent="1" vertex="1">
          <mxGeometry x="1630" y="849.3" width="90" height="40" as="geometry" />
        </mxCell>
        <mxCell id="iclG0WWFXR2_eoOYb4x0-46" value="" style="image;aspect=fixed;html=1;points=[];align=center;fontSize=12;image=img/lib/azure2/networking/Web_Application_Firewall_Policies_WAF.svg;" parent="1" vertex="1">
          <mxGeometry x="48" y="409" width="51" height="51" as="geometry" />
        </mxCell>
        <mxCell id="iclG0WWFXR2_eoOYb4x0-48" value="WAF" style="text;html=1;align=center;verticalAlign=middle;resizable=0;points=[];autosize=1;strokeColor=none;fillColor=none;fontStyle=1;fontSize=18;" parent="1" vertex="1">
          <mxGeometry x="100" y="400.3" width="60" height="40" as="geometry" />
        </mxCell>
        <mxCell id="iclG0WWFXR2_eoOYb4x0-57" value="" style="image;aspect=fixed;html=1;points=[];align=center;fontSize=12;image=img/lib/azure2/app_services/App_Service_Plans.svg;" parent="1" vertex="1">
          <mxGeometry x="-47.94999999999999" y="713.3" width="64" height="64" as="geometry" />
        </mxCell>
        <mxCell id="iclG0WWFXR2_eoOYb4x0-58" value="" style="image;aspect=fixed;html=1;points=[];align=center;fontSize=12;image=img/lib/azure2/app_services/App_Service_Plans.svg;" parent="1" vertex="1">
          <mxGeometry x="146.05" y="713.3" width="64" height="64" as="geometry" />
        </mxCell>
        <mxCell id="iclG0WWFXR2_eoOYb4x0-61" value="&lt;div style=&quot;font-size: 14px;&quot;&gt;APP SERVICE&lt;/div&gt;FRONTEND&lt;div style=&quot;font-size: 14px;&quot;&gt;(NODE.JS)&lt;/div&gt;" style="text;html=1;align=center;verticalAlign=middle;resizable=0;points=[];autosize=1;strokeColor=none;fillColor=none;fontStyle=1;fontSize=14;" parent="1" vertex="1">
          <mxGeometry x="-167.95" y="700.3" width="120" height="60" as="geometry" />
        </mxCell>
        <mxCell id="iclG0WWFXR2_eoOYb4x0-62" value="&lt;div style=&quot;font-size: 14px;&quot;&gt;APP SERVICE&lt;/div&gt;BACKEND&lt;div&gt;(.NET 8)&lt;/div&gt;" style="text;html=1;align=center;verticalAlign=middle;resizable=0;points=[];autosize=1;strokeColor=none;fillColor=none;fontStyle=1;fontSize=14;" parent="1" vertex="1">
          <mxGeometry x="202.04999999999995" y="725" width="120" height="60" as="geometry" />
        </mxCell>
        <mxCell id="iclG0WWFXR2_eoOYb4x0-65" value="" style="image;aspect=fixed;html=1;points=[];align=center;fontSize=12;image=img/lib/azure2/databases/Cache_Redis.svg;" parent="1" vertex="1">
          <mxGeometry x="31.05000000000001" y="832" width="64" height="52" as="geometry" />
        </mxCell>
        <mxCell id="iclG0WWFXR2_eoOYb4x0-66" style="edgeStyle=orthogonalEdgeStyle;rounded=0;orthogonalLoop=1;jettySize=auto;html=1;entryX=0.719;entryY=0.096;entryDx=0;entryDy=0;entryPerimeter=0;" parent="1" source="iclG0WWFXR2_eoOYb4x0-63" target="iclG0WWFXR2_eoOYb4x0-65" edge="1">
          <mxGeometry relative="1" as="geometry" />
        </mxCell>
        <mxCell id="iclG0WWFXR2_eoOYb4x0-67" value="AZURE CACHE&lt;div style=&quot;font-size: 14px;&quot;&gt;FOR REDIS&lt;/div&gt;" style="text;html=1;align=center;verticalAlign=middle;resizable=0;points=[];autosize=1;strokeColor=none;fillColor=none;fontStyle=1;fontSize=14;" parent="1" vertex="1">
          <mxGeometry x="90.05000000000001" y="827" width="120" height="50" as="geometry" />
        </mxCell>
        <mxCell id="iclG0WWFXR2_eoOYb4x0-69" value="AZURE DB MySQL&lt;div style=&quot;font-size: 14px;&quot;&gt;(HA com redundância de zona)&lt;/div&gt;" style="text;html=1;align=center;verticalAlign=middle;resizable=0;points=[];autosize=1;strokeColor=none;fillColor=none;fontSize=14;fontStyle=1" parent="1" vertex="1">
          <mxGeometry x="-47.94999999999999" y="1015" width="220" height="50" as="geometry" />
        </mxCell>
        <mxCell id="iclG0WWFXR2_eoOYb4x0-70" value="Azure AD Connect /&lt;div style=&quot;font-size: 14px;&quot;&gt;Entra Connect&lt;/div&gt;" style="text;html=1;align=center;verticalAlign=middle;resizable=0;points=[];autosize=1;strokeColor=none;fillColor=none;fontSize=14;fontStyle=1" parent="1" vertex="1">
          <mxGeometry x="1440" y="730" width="150" height="50" as="geometry" />
        </mxCell>
        <mxCell id="iclG0WWFXR2_eoOYb4x0-71" style="edgeStyle=orthogonalEdgeStyle;rounded=0;orthogonalLoop=1;jettySize=auto;html=1;" parent="1" source="iclG0WWFXR2_eoOYb4x0-65" edge="1">
          <mxGeometry relative="1" as="geometry">
            <mxPoint x="63.05000000000001" y="945" as="targetPoint" />
          </mxGeometry>
        </mxCell>
        <mxCell id="iclG0WWFXR2_eoOYb4x0-74" value="" style="verticalLabelPosition=bottom;html=1;verticalAlign=top;align=center;strokeColor=none;fillColor=#00BEF2;shape=mxgraph.azure.backup_service;" parent="1" vertex="1">
          <mxGeometry x="-290" y="958.75" width="80" height="62.5" as="geometry" />
        </mxCell>
        <mxCell id="iclG0WWFXR2_eoOYb4x0-75" value="&lt;span style=&quot;font-size: 14px;&quot;&gt;AZURE&lt;/span&gt;&lt;div style=&quot;font-size: 14px;&quot;&gt;&lt;span style=&quot;font-size: 14px;&quot;&gt;BACKUP&lt;/span&gt;&lt;/div&gt;" style="text;html=1;align=center;verticalAlign=middle;resizable=0;points=[];autosize=1;strokeColor=none;fillColor=none;fontStyle=1;fontSize=14;" parent="1" vertex="1">
          <mxGeometry x="-280" y="911.1999999999999" width="80" height="50" as="geometry" />
        </mxCell>
        <mxCell id="iclG0WWFXR2_eoOYb4x0-78" value="" style="html=1;strokeWidth=1;shadow=0;dashed=0;shape=mxgraph.ios7.misc.vpn;fillColor=#007AFF;strokeColor=none;buttonText=;strokeColor2=#222222;fontColor=#222222;fontSize=8;verticalLabelPosition=bottom;verticalAlign=top;align=center;sketch=0;" parent="1" vertex="1">
          <mxGeometry x="1420" y="831.8" width="48.5" height="47.5" as="geometry" />
        </mxCell>
        <mxCell id="iclG0WWFXR2_eoOYb4x0-84" value="" style="image;aspect=fixed;html=1;points=[];align=center;fontSize=12;image=img/lib/azure2/other/Azure_Monitor_Dashboard.svg;" parent="1" vertex="1">
          <mxGeometry x="431" y="1060" width="68" height="63.2" as="geometry" />
        </mxCell>
        <mxCell id="iclG0WWFXR2_eoOYb4x0-85" value="" style="image;aspect=fixed;html=1;points=[];align=center;fontSize=12;image=img/lib/azure2/analytics/Log_Analytics_Workspaces.svg;" parent="1" vertex="1">
          <mxGeometry x="440" y="926.0000000000001" width="64" height="64" as="geometry" />
        </mxCell>
        <mxCell id="iclG0WWFXR2_eoOYb4x0-87" value="Azure Monitor&lt;div style=&quot;font-size: 14px;&quot;&gt;(logs, métricas, insights)&lt;/div&gt;" style="text;html=1;align=center;verticalAlign=middle;resizable=0;points=[];autosize=1;strokeColor=none;fillColor=none;fontStyle=1;fontSize=14;" parent="1" vertex="1">
          <mxGeometry x="463.4" y="1097.7" width="170" height="50" as="geometry" />
        </mxCell>
        <mxCell id="iclG0WWFXR2_eoOYb4x0-88" value="Azure log&amp;nbsp;&lt;div&gt;analytics&lt;/div&gt;" style="text;html=1;align=center;verticalAlign=middle;resizable=0;points=[];autosize=1;strokeColor=none;fillColor=none;fontSize=14;fontStyle=1" parent="1" vertex="1">
          <mxGeometry x="420" y="990" width="90" height="50" as="geometry" />
        </mxCell>
        <mxCell id="iclG0WWFXR2_eoOYb4x0-92" value="" style="image;sketch=0;aspect=fixed;html=1;points=[];align=center;fontSize=12;image=img/lib/mscae/Azure_Sentinel.svg;" parent="1" vertex="1">
          <mxGeometry x="560" y="970" width="61.6" height="70" as="geometry" />
        </mxCell>
        <mxCell id="iclG0WWFXR2_eoOYb4x0-93" value="Microsoft&lt;div style=&quot;font-size: 14px;&quot;&gt;Sentinel&lt;/div&gt;" style="text;html=1;align=center;verticalAlign=middle;resizable=0;points=[];autosize=1;strokeColor=none;fillColor=none;fontStyle=1;fontSize=14;" parent="1" vertex="1">
          <mxGeometry x="540.8" y="924.3" width="80" height="50" as="geometry" />
        </mxCell>
        <mxCell id="iclG0WWFXR2_eoOYb4x0-97" value="Azure AD / Entra ID" style="text;html=1;align=center;verticalAlign=middle;resizable=0;points=[];autosize=1;strokeColor=none;fillColor=none;fontStyle=1;fontSize=14;" parent="1" vertex="1">
          <mxGeometry x="810" y="430" width="150" height="30" as="geometry" />
        </mxCell>
        <mxCell id="iclG0WWFXR2_eoOYb4x0-98" value="" style="shape=flexArrow;endArrow=classic;startArrow=classic;html=1;rounded=0;entryX=0;entryY=0.58;entryDx=0;entryDy=0;entryPerimeter=0;" parent="1" target="iclG0WWFXR2_eoOYb4x0-17" edge="1">
          <mxGeometry width="100" height="100" relative="1" as="geometry">
            <mxPoint x="320" y="680" as="sourcePoint" />
            <mxPoint x="870" y="420" as="targetPoint" />
            <Array as="points" />
          </mxGeometry>
        </mxCell>
        <mxCell id="iclG0WWFXR2_eoOYb4x0-108" style="edgeStyle=orthogonalEdgeStyle;rounded=0;orthogonalLoop=1;jettySize=auto;html=1;entryX=0.884;entryY=-0.011;entryDx=0;entryDy=0;entryPerimeter=0;" parent="1" source="iclG0WWFXR2_eoOYb4x0-17" target="iclG0WWFXR2_eoOYb4x0-86" edge="1">
          <mxGeometry relative="1" as="geometry">
            <Array as="points">
              <mxPoint x="882" y="630" />
              <mxPoint x="607" y="630" />
            </Array>
          </mxGeometry>
        </mxCell>
        <mxCell id="iclG0WWFXR2_eoOYb4x0-109" value="" style="verticalLabelPosition=bottom;html=1;verticalAlign=top;align=center;strokeColor=none;fillColor=#00BEF2;shape=mxgraph.azure.sql_database_sql_azure;" parent="1" vertex="1">
          <mxGeometry x="104.05000000000001" y="965" width="47.5" height="50" as="geometry" />
        </mxCell>
        <mxCell id="iclG0WWFXR2_eoOYb4x0-110" value="" style="shape=flexArrow;endArrow=classic;startArrow=classic;html=1;rounded=0;" parent="1" edge="1">
          <mxGeometry width="100" height="100" relative="1" as="geometry">
            <mxPoint x="25.55000000000001" y="987.5" as="sourcePoint" />
            <mxPoint x="96.55000000000001" y="988" as="targetPoint" />
            <Array as="points">
              <mxPoint x="76.55000000000001" y="988" />
            </Array>
          </mxGeometry>
        </mxCell>
        <mxCell id="iclG0WWFXR2_eoOYb4x0-112" value="" style="image;aspect=fixed;html=1;points=[];align=center;fontSize=12;image=img/lib/azure2/security/Conditional_Access.svg;" parent="1" vertex="1">
          <mxGeometry x="910" y="597.3" width="43.24" height="52.5" as="geometry" />
        </mxCell>
        <mxCell id="iclG0WWFXR2_eoOYb4x0-113" value="Acesso Condicional" style="text;html=1;align=center;verticalAlign=middle;resizable=0;points=[];autosize=1;strokeColor=none;fillColor=none;fontSize=13;fontStyle=1" parent="1" vertex="1">
          <mxGeometry x="906.6200000000001" y="570" width="140" height="30" as="geometry" />
        </mxCell>
        <mxCell id="iclG0WWFXR2_eoOYb4x0-121" value="" style="shape=flexArrow;endArrow=classic;startArrow=classic;html=1;rounded=0;" parent="1" edge="1">
          <mxGeometry width="100" height="100" relative="1" as="geometry">
            <mxPoint x="1330" y="820" as="sourcePoint" />
            <mxPoint x="1580" y="820" as="targetPoint" />
          </mxGeometry>
        </mxCell>
        <mxCell id="iclG0WWFXR2_eoOYb4x0-122" value="SSO" style="text;html=1;align=center;verticalAlign=middle;resizable=0;points=[];autosize=1;strokeColor=none;fillColor=none;fontStyle=1;fontSize=14;" parent="1" vertex="1">
          <mxGeometry x="490.0000000000001" y="637.3" width="50" height="30" as="geometry" />
        </mxCell>
        <mxCell id="iclG0WWFXR2_eoOYb4x0-128" value="" style="sketch=0;verticalLabelPosition=bottom;sketch=0;aspect=fixed;html=1;verticalAlign=top;strokeColor=none;fillColor=#000000;align=center;outlineConnect=0;pointerEvents=1;shape=mxgraph.citrix2.authentication_mfa;" parent="1" vertex="1">
          <mxGeometry x="906.62" y="649.8" width="50" height="50" as="geometry" />
        </mxCell>
        <mxCell id="iclG0WWFXR2_eoOYb4x0-129" value="MFA" style="text;html=1;align=center;verticalAlign=middle;resizable=0;points=[];autosize=1;strokeColor=none;fillColor=none;fontSize=14;fontStyle=1" parent="1" vertex="1">
          <mxGeometry x="956.62" y="657.3" width="50" height="30" as="geometry" />
        </mxCell>
        <mxCell id="iclG0WWFXR2_eoOYb4x0-133" value="" style="sketch=0;outlineConnect=0;fontColor=#232F3E;gradientColor=none;fillColor=#232F3D;strokeColor=none;dashed=0;verticalLabelPosition=bottom;verticalAlign=top;align=center;html=1;fontSize=12;fontStyle=0;aspect=fixed;pointerEvents=1;shape=mxgraph.aws4.users;" parent="1" vertex="1">
          <mxGeometry x="37.05000000000001" y="10" width="78" height="78" as="geometry" />
        </mxCell>
        <mxCell id="iclG0WWFXR2_eoOYb4x0-135" style="edgeStyle=orthogonalEdgeStyle;rounded=0;orthogonalLoop=1;jettySize=auto;html=1;" parent="1" source="iclG0WWFXR2_eoOYb4x0-134" edge="1">
          <mxGeometry relative="1" as="geometry">
            <mxPoint x="75.97857142857157" y="270" as="targetPoint" />
          </mxGeometry>
        </mxCell>
        <mxCell id="iclG0WWFXR2_eoOYb4x0-134" value="Usuários" style="text;html=1;align=center;verticalAlign=middle;resizable=0;points=[];autosize=1;strokeColor=none;fillColor=none;fontSize=14;fontStyle=1" parent="1" vertex="1">
          <mxGeometry x="37.05000000000001" y="88" width="80" height="30" as="geometry" />
        </mxCell>
        <mxCell id="iclG0WWFXR2_eoOYb4x0-137" style="edgeStyle=orthogonalEdgeStyle;rounded=0;orthogonalLoop=1;jettySize=auto;html=1;entryX=1;entryY=0.58;entryDx=0;entryDy=0;entryPerimeter=0;" parent="1" source="iclG0WWFXR2_eoOYb4x0-34" target="iclG0WWFXR2_eoOYb4x0-17" edge="1">
          <mxGeometry relative="1" as="geometry">
            <Array as="points">
              <mxPoint x="1612" y="501" />
            </Array>
          </mxGeometry>
        </mxCell>
        <mxCell id="iclG0WWFXR2_eoOYb4x0-139" value="" style="rounded=0;whiteSpace=wrap;html=1;" parent="1" vertex="1">
          <mxGeometry x="770" y="709.3" width="190" height="110.7" as="geometry" />
        </mxCell>
        <mxCell id="iclG0WWFXR2_eoOYb4x0-140" value="" style="image;aspect=fixed;html=1;points=[];align=center;fontSize=12;image=img/lib/azure2/app_services/App_Service_Plans.svg;" parent="1" vertex="1">
          <mxGeometry x="790" y="741.2" width="64" height="64" as="geometry" />
        </mxCell>
        <mxCell id="iclG0WWFXR2_eoOYb4x0-141" value="BACKOFFICE" style="text;html=1;align=center;verticalAlign=middle;resizable=0;points=[];autosize=1;strokeColor=none;fillColor=none;fontSize=14;fontStyle=1" parent="1" vertex="1">
          <mxGeometry x="826.76" y="730" width="110" height="30" as="geometry" />
        </mxCell>
        <mxCell id="iclG0WWFXR2_eoOYb4x0-142" style="edgeStyle=orthogonalEdgeStyle;rounded=0;orthogonalLoop=1;jettySize=auto;html=1;exitX=0.75;exitY=0.79;exitDx=0;exitDy=0;exitPerimeter=0;entryX=0.677;entryY=0.036;entryDx=0;entryDy=0;entryPerimeter=0;" parent="1" source="iclG0WWFXR2_eoOYb4x0-17" target="iclG0WWFXR2_eoOYb4x0-139" edge="1">
          <mxGeometry relative="1" as="geometry" />
        </mxCell>
        <mxCell id="iclG0WWFXR2_eoOYb4x0-143" value="" style="verticalLabelPosition=bottom;html=1;verticalAlign=top;align=center;strokeColor=none;fillColor=#00BEF2;shape=mxgraph.azure.load_balancer_generic;pointerEvents=1;" parent="1" vertex="1">
          <mxGeometry x="-20" y="502.3" width="41.05" height="57.7" as="geometry" />
        </mxCell>
        <mxCell id="iclG0WWFXR2_eoOYb4x0-144" value="" style="verticalLabelPosition=bottom;html=1;verticalAlign=top;align=center;strokeColor=none;fillColor=#00BEF2;shape=mxgraph.azure.load_balancer_generic;pointerEvents=1;" parent="1" vertex="1">
          <mxGeometry x="127.05" y="502.3" width="42.95" height="57.7" as="geometry" />
        </mxCell>
        <mxCell id="iclG0WWFXR2_eoOYb4x0-146" value="" style="endArrow=classic;startArrow=classic;html=1;rounded=0;entryX=0;entryY=0.5;entryDx=0;entryDy=0;entryPerimeter=0;exitX=1;exitY=0.5;exitDx=0;exitDy=0;exitPerimeter=0;" parent="1" source="iclG0WWFXR2_eoOYb4x0-143" target="iclG0WWFXR2_eoOYb4x0-144" edge="1">
          <mxGeometry width="50" height="50" relative="1" as="geometry">
            <mxPoint x="370" y="740" as="sourcePoint" />
            <mxPoint x="420" y="690" as="targetPoint" />
            <Array as="points" />
          </mxGeometry>
        </mxCell>
        <mxCell id="iclG0WWFXR2_eoOYb4x0-153" value="LOAD BALANCER" style="text;html=1;align=center;verticalAlign=middle;resizable=0;points=[];autosize=1;strokeColor=none;fillColor=none;fontSize=14;fontStyle=1" parent="1" vertex="1">
          <mxGeometry x="90.05000000000001" y="555" width="140" height="30" as="geometry" />
        </mxCell>
        <mxCell id="v1dfMaa-vSMGMVg-pt_F-1" style="edgeStyle=orthogonalEdgeStyle;rounded=0;orthogonalLoop=1;jettySize=auto;html=1;entryX=-0.03;entryY=0.294;entryDx=0;entryDy=0;entryPerimeter=0;" edge="1" parent="1" source="iclG0WWFXR2_eoOYb4x0-68" target="iclG0WWFXR2_eoOYb4x0-88">
          <mxGeometry relative="1" as="geometry" />
        </mxCell>
        <mxCell id="v1dfMaa-vSMGMVg-pt_F-2" value="" style="image;aspect=fixed;html=1;points=[];align=center;fontSize=12;image=img/lib/azure2/networking/Front_Doors.svg;" vertex="1" parent="1">
          <mxGeometry x="-150" y="502.3" width="68" height="60" as="geometry" />
        </mxCell>
        <mxCell id="v1dfMaa-vSMGMVg-pt_F-4" value="CDN" style="text;html=1;align=center;verticalAlign=middle;resizable=0;points=[];autosize=1;strokeColor=none;fillColor=none;fontSize=14;fontStyle=1" vertex="1" parent="1">
          <mxGeometry x="-141" y="562.3" width="50" height="30" as="geometry" />
        </mxCell>
        <mxCell id="v1dfMaa-vSMGMVg-pt_F-5" style="edgeStyle=orthogonalEdgeStyle;rounded=0;orthogonalLoop=1;jettySize=auto;html=1;entryX=0.581;entryY=0.02;entryDx=0;entryDy=0;entryPerimeter=0;" edge="1" parent="1" source="iclG0WWFXR2_eoOYb4x0-46" target="v1dfMaa-vSMGMVg-pt_F-3">
          <mxGeometry relative="1" as="geometry" />
        </mxCell>
        <mxCell id="v1dfMaa-vSMGMVg-pt_F-6" style="edgeStyle=orthogonalEdgeStyle;rounded=0;orthogonalLoop=1;jettySize=auto;html=1;entryX=0.425;entryY=0.046;entryDx=0;entryDy=0;entryPerimeter=0;" edge="1" parent="1" source="v1dfMaa-vSMGMVg-pt_F-3" target="iclG0WWFXR2_eoOYb4x0-63">
          <mxGeometry relative="1" as="geometry" />
        </mxCell>
        <mxCell id="v1dfMaa-vSMGMVg-pt_F-8" style="edgeStyle=orthogonalEdgeStyle;rounded=0;orthogonalLoop=1;jettySize=auto;html=1;exitX=0.99;exitY=0.5;exitDx=0;exitDy=0;exitPerimeter=0;entryX=0.011;entryY=0.379;entryDx=0;entryDy=0;entryPerimeter=0;" edge="1" parent="1" source="iclG0WWFXR2_eoOYb4x0-74" target="iclG0WWFXR2_eoOYb4x0-68">
          <mxGeometry relative="1" as="geometry" />
        </mxCell>
      </root>
    </mxGraphModel>
  </diagram>
</mxfile>
